# AST/ASF file generated using VICON BodyLanguage
# -----------------------------------------------
:version 1.10
:name VICON
:units
  mass 1.0
  length 0.45
  angle deg
:documentation
   .ast/.asf automatically generated from VICON data using
   VICON BodyBuilder and BodyLanguage model FoxedUp or BRILLIANT.MOD
:root
   order TX TY TZ RX RY RZ
   axis XYZ
   position 0 0 0  
   orientation 0 0 0 
:bonedata
  begin
     id 1 
     name lhipjoint
     direction 0.54267 -0.795011 0.271047 
     length 2.39899 
     axis 0 0 0  XYZ
  end
  begin
     id 2 
     name lfemur
     direction 0.34202 -0.939693 0  
     length 7.49701  
     axis 0 0 20  XYZ
    dof rx ry rz
    limits (-160.0 20.0)
           (-70.0 70.0)
           (-60.0 70.0)
  end
  begin
     id 3 
     name ltibia
     direction 0.34202 -0.939693 0   
     length 8.1668   
     axis 0 0 20   XYZ
    dof rx
    limits (-10.0 170.0)
  end
  begin
     id 4 
     name lfoot
     direction 0.0736283 -0.202292 0.976554   
     length 2.13544   
     axis -90 7.62852e-016 20   XYZ
    dof rx rz
    limits (-45.0 90.0)
           (-70.0 20.0)
  end
  begin
     id 5 
     name ltoes
     direction 1.53557e-011 -4.22024e-011 1   
     length 1.07411   
     axis -90 7.62852e-016 20   XYZ
    dof rx
    limits (-90.0 20.0)
  end
  begin
     id 6 
     name rhipjoint
     direction -0.538061 -0.797813 0.272002   
     length 2.39057  
     axis 0 0 0  XYZ 
  end
  begin
     id 7 
     name rfemur
     direction -0.34202 -0.939693 0   
     length 7.50152   
     axis 0 0 -20   XYZ
    dof rx ry rz
    limits (-160.0 20.0)
           (-70.0 70.0)
           (-70.0 60.0)
  end
  begin
     id 8 
     name rtibia
     direction -0.34202 -0.939693 0   
     length 8.05793   
     axis 0 0 -20   XYZ
    dof rx
    limits (-10.0 170.0)
 end
 begin
     id 9 
     name rfoot
     direction -0.0765195 -0.210236 0.974652   
     length 2.28698  
     axis -90 -7.62852e-016 -20   XYZ
    dof rx rz
    limits (-45.0 90.0)
           (-20.0 70.0)
  end
  begin
     id 10 
     name rtoes
     direction -1.53542e-011 -4.21847e-011 1   
     length 1.14762   
     axis -90 -7.62852e-016 -20   XYZ
    dof rx
    limits (-90.0 20.0)
  end
  begin
     id 11 
     name lowerback
     direction -0.0217239 0.996592 -0.0795765   
     length 2.08176   
     axis 0 0 0   XYZ
    dof rx ry rz
    limits (-20.0 45.0)
           (-30.0 30.0)
           (-30.0 30.0)
  end
  begin
     id 12 
     name upperback
     direction -0.00563773 0.999651 -0.0258155   
     length 2.08898   
     axis 0 0 0   XYZ
    dof rx ry rz
    limits (-20.0 45.0)
           (-30.0 30.0)
           (-30.0 30.0)
  end
  begin
     id 13 
     name thorax
     direction 0.0032706 0.999923 0.0119599   
     length 2.0968   
     axis 0 0 0   XYZ
    dof rx ry rz
    limits (-20.0 45.0)
           (-30.0 30.0)
           (-30.0 30.0)
  end
  begin
     id 14 
     name lowerneck
     direction -0.0285886 0.99568 0.0883427   
     length 1.81272   
     axis 0 0 0   XYZ
    dof rx ry rz
    limits (-20.0 45.0)
           (-30.0 30.0)
           (-30.0 30.0)
  end
  begin
     id 15 
     name upperneck
     direction 0.0807535 0.97985 -0.18268   
     length 1.82518   
     axis 0 0 0   XYZ
    dof rx ry rz
    limits (-20.0 45.0)
           (-30.0 30.0)
           (-30.0 30.0)
  end
  begin
     id 16
     name head
     direction 0.0236605 0.997053 -0.0729767  
     length 1.84443  
     axis 0 0 0   XYZ
    dof rx ry rz
    limits (-20.0 45.0)
           (-30.0 30.0)
           (-30.0 30.0)
  end
  begin
     id 17 
     name lclavicle
     direction 0.918986 0.39378 -0.0200683  
     length 3.27822  
     axis 0 0 0   XYZ
    dof ry rz
    limits (-20.0 10.0)
           (0.0 20.0)
  end
  begin
     id 18 
     name lhumerus
     direction 1 -4.4897e-011 2.09544e-027   
     length 5.5568   
     axis 180 -30 -90   XYZ
    dof rx ry rz
    limits (-60.0 90.0)
           (-90.0 90.0)
           (-90.0 90.0)
  end
  begin
     id 19
     name lradius
     direction 1 -4.48957e-011 -1.27696e-026   
     length 3.63979   
     axis 180 -30 -90   XYZ
    dof rx
    limits (-10.0 170.0)
  end
  begin
     id 20
     name lwrist
     direction 1 -4.49001e-011 -1.49001e-026   
     length 1.8199   
     axis 9.0955e-015 90 90   XYZ
    dof ry
    limits (-180.0 0.0)
 end
  begin
     id 21 
     name lhand
     direction 1 -4.48709e-011 -2.9758e-026   
     length 0.569419   
     axis 1.90115e-014 90 90   XYZ
    dof rx rz
    limits (-90.0 90.0)
           (-45.0 45.0)
  end
  begin
     id 22 
     name lfingers
     direction 1 -4.49175e-011 -5.96505e-026   
     length 0.45908   
     axis 3.80223e-014 90 90   XYZ
    dof rx
    limits (0.0 90.0)
  end
  begin
     id 23
     name lthumb
     direction 0.707107 -6.34864e-011 0.707107   
     length 0.65915   
     axis -90 45 -3.84942e-014   XYZ
    dof rx rz
    limits (-45.0 45.0)
           (-45.0 45.0)
  end
  begin
     id 24 
     name rclavicle
     direction -0.911913 0.396426 -0.106115   
     length 3.46301  
     axis 0 0 0   XYZ 
    dof ry rz
    limits (-10.0 20.0)
           (-20.0 0.0)
  end
  begin
     id 25 
     name rhumerus
     direction -1 -4.48965e-011 7.78516e-028  
     length 5.34339   
     axis 180 30 90   XYZ
    dof rx ry rz
    limits (-90.0 60.0)
           (-90.0 90.0)
           (-90.0 90.0)
  end
  begin
     id 26 
     name rradius
     direction -1 -4.48948e-011 -5.79823e-027   
     length 3.65101   
     axis 180 30 90   XYZ
    dof rx
    limits (-10.0 170.0)
  end
  begin
     id 27 
     name rwrist
     direction -1 -4.48995e-011 -1.48996e-026   
     length 1.8255   
     axis 9.0955e-015 -90 -90   XYZ
    dof ry
    limits (-180.0 0.0)
  end
  begin
     id 28
     name rhand
     direction -1 -4.48957e-011 -2.97937e-026   
     length 0.694249   
     axis 1.90115e-014 -90 -90   XYZ
    dof rx rz
    limits (-90.0 90.0)
           (-45.0 45.0)
  end
  begin
     id 29
     name rfingers
     direction -1 -4.4898e-011 -5.95943e-026   
     length 0.559721   
     axis 3.80223e-014 -90 -90   XYZ
    dof rx
    limits (0.0 90.0)
  end
  begin
     id 30
     name rthumb
     direction -0.707107 -6.34969e-011 0.707107   
     length 0.803651   
     axis -90 -45 3.84942e-014   XYZ
    dof rx rz
    limits (-45.0 45.0)
           (-45.0 45.0)
  end
:hierarchy
  begin
    root lhipjoint rhipjoint lowerback
    lhipjoint lfemur
    lfemur ltibia
    ltibia lfoot
    lfoot ltoes
    rhipjoint rfemur
    rfemur rtibia
    rtibia rfoot
    rfoot rtoes
    lowerback upperback
    upperback thorax
    thorax lowerneck lclavicle rclavicle
    lowerneck upperneck
    upperneck head
    lclavicle lhumerus
    lhumerus lradius
    lradius lwrist
    lwrist lhand lthumb
    lhand lfingers
    rclavicle rhumerus
    rhumerus rradius
    rradius rwrist
    rwrist rhand rthumb
    rhand rfingers
  end

#!OML:ASF H:\Terrain\Walking\May29\JustinRory\rory.ASF
:FULLY-SPECIFIED
:DEGREES
371
root 12.5426 15.6055 -7.42755 -21.3901 -5.86824 -2.09072
lowerback 19.0437 9.72901 0.290996
upperback 9.33057 12.813 -0.148331
thorax -0.265532 6.45864 -2.68226
lowerneck -5.74561 -13.2708 -9.05235
upperneck 18.133 -20.7481 17.3799
head 9.50514 -9.09968 4.9297
rclavicle -3.47873e-014 1.11319e-014
rhumerus 62.6899 -41.1001 -117.056
rradius 8.19864
rwrist 59.6885
rhand -25.3171 19.7313
rfingers 7.12502
rthumb 1.20531 -10.2451
lclavicle -3.47873e-014 1.11319e-014
lhumerus -44.5187 30.9649 33.2148
lradius 16.1056
lwrist -21.4009
lhand -22.0144 34.3894
lfingers 7.12502
lthumb 4.39483 64.3238
rfemur -35.5953 -15.995 14.2263
rtibia 68.9174
rfoot -7.71687 -4.79152
rtoes -0.70319
lfemur -32.1439 0.891439 -11.3099
ltibia 52.4558
lfoot 5.76051 -5.28909
ltoes -2.70286
372
root 12.5206 15.5937 -7.42065 -21.3549 -5.49531 -0.976378
lowerback 19.1362 9.84405 -0.50856
upperback 9.2989 12.8203 -0.3201
thorax -0.473386 6.43641 -2.47641
lowerneck -6.0357 -13.3589 -9.37154
upperneck 18.3121 -20.8311 17.2641
head 9.65588 -9.13851 4.90277
rclavicle 4.1546e-014 -4.92986e-014
rhumerus 63.2625 -40.2955 -116.987
rradius 7.84016
rwrist 60.6913
rhand -24.3588 19.0595
rfingers 7.12502
rthumb 2.13081 -10.9096
lclavicle 4.1546e-014 -4.92986e-014
lhumerus -42.0648 30.8391 36.4841
lradius 16.7234
lwrist -19.5818
lhand -23.5524 35.8055
lfingers 7.12502
lthumb 2.9096 65.7654
rfemur -35.8118 -15.9406 12.6422
rtibia 68.158
rfoot -7.29282 -6.73951
rtoes 3.19262
lfemur -32.2719 0.419069 -12.5495
ltibia 52.3925
lfoot 5.61781 -4.83978
ltoes -4.63228
373
root 12.4854 15.5761 -7.42344 -21.2237 -5.71196 -0.814325
lowerback 19.3435 9.93048 -0.358036
upperback 9.19318 12.9525 -0.225873
thorax -0.676906 6.50038 -2.53124
lowerneck -6.26566 -13.53 -9.9593
upperneck 18.4396 -21.0573 17.4136
head 9.86654 -9.24639 4.98359
rclavicle 2.16874e-013 -8.18993e-014
rhumerus 63.9913 -39.5 -116.9
rradius 6.90037
rwrist 60.745
rhand -24.0372 19.4653
rfingers 7.12502
rthumb 2.44146 -10.5005
lclavicle 2.16874e-013 -8.18993e-014
lhumerus -39.4987 30.293 40.0504
lradius 17.547
lwrist -17.1608
lhand -24.9326 35.0396
lfingers 7.12502
lthumb 1.57667 65.0135
rfemur -36.0333 -15.2506 12.4318
rtibia 67.2078
rfoot -6.89068 -8.82288
rtoes 6.13431
lfemur -32.3687 0.168447 -12.4488
ltibia 52.1059
lfoot 5.73121 -4.45442
ltoes -5.82444
374
root 12.4553 15.5858 -7.42337 -21.2504 -5.57643 -0.0266818
lowerback 19.4617 10.0389 -0.877982
upperback 9.31913 12.9987 -0.269012
thorax -0.697277 6.50843 -2.32939
lowerneck -6.70865 -13.7241 -10.335
upperneck 18.313 -21.2626 17.4843
head 9.99163 -9.33687 4.99108
rclavicle -6.67916e-014 3.26007e-014
rhumerus 64.647 -38.8137 -116.784
rradius 6.36232
rwrist 60.5539
rhand -24.8013 19.0227
rfingers 7.12502
rthumb 1.70345 -10.9503
lclavicle -6.67916e-014 3.26007e-014
lhumerus -36.7073 27.5783 44.8951
lradius 19.3756
lwrist -12.0379
lhand -25.3894 32.719
lfingers 7.12502
lthumb 1.13543 62.6957
rfemur -35.957 -14.8105 11.311
rtibia 65.9535
rfoot -5.97414 -10.5841
rtoes 9.78706
lfemur -32.2022 -0.431393 -13.1625
ltibia 51.9822
lfoot 5.50022 -3.87086
ltoes -5.71511
375
root 12.4451 15.617 -7.38668 -22.4551 -3.58725 4.33189
lowerback 20.1113 10.4792 -4.97506
upperback 9.99292 12.8044 -1.11723
thorax -0.913084 6.29599 -1.13154
lowerneck -7.2422 -13.887 -10.5603
upperneck 17.9109 -21.3607 17.4742
head 9.99061 -9.38261 4.95847
rclavicle 1.39149e-013 -5.40694e-014
rhumerus 65.2972 -38.2739 -116.544
rradius 5.98541
rwrist 60.2657
rhand -25.0492 18.4131
rfingers 7.12502
rthumb 1.46403 -11.5616
lclavicle 1.39149e-013 -5.40694e-014
lhumerus -34.2651 24.5275 49.5556
lradius 21.6509
lwrist -6.92316
lhand -25.726 34.0831
lfingers 7.12502
lthumb 0.81037 64.0614
rfemur -34.6327 -15.6505 5.00737
rtibia 64.6515
rfoot -4.64104 -10.4201
rtoes 13.7806
lfemur -30.4024 -1.88078 -18.6444
ltibia 51.6124
lfoot 4.57992 -2.86973
ltoes -6.94842
376
root 12.3875 15.5966 -7.44614 -20.8968 -5.20937 0.770973
lowerback 20.1916 10.1947 -1.27233
upperback 9.26702 13.1031 -0.127917
thorax -1.23028 6.53482 -2.14888
lowerneck -7.74993 -14.0559 -10.9239
upperneck 17.6853 -21.5031 17.5584
head 10.0841 -9.44099 4.97317
rclavicle 2.42517e-014 1.03368e-014
rhumerus 65.9087 -38.027 -116.154
rradius 5.46286
rwrist 59.6267
rhand -26.008 18.7584
rfingers 7.12502
rthumb 0.537976 -11.2207
lclavicle 2.42517e-014 1.03368e-014
lhumerus -32.1068 22.7614 53.1746
lradius 23.3561
lwrist -4.19837
lhand -25.9356 35.7973
lfingers 7.12502
lthumb 0.607969 65.7762
rfemur -36.0554 -13.7112 9.86313
rtibia 63.0223
rfoot -3.72107 -12.5652
rtoes 15.6837
lfemur -32.2395 -1.44867 -13.8746
ltibia 51.6017
lfoot 5.29807 -3.26359
ltoes -8.89907
